<svg xmlns="http://www.w3.org/2000/svg" width="1188" height="465" viewBox="0 0 1188 465">
  <metadata><?xpacket begin="﻿" id="W5M0MpCehiHzreSzNTczkc9d"?>
<x:xmpmeta xmlns:x="adobe:ns:meta/" x:xmptk="Adobe XMP Core 5.6-c138 79.159824, 2016/09/14-01:09:01        ">
   <rdf:RDF xmlns:rdf="http://www.w3.org/1999/02/22-rdf-syntax-ns#">
      <rdf:Description rdf:about=""/>
   </rdf:RDF>
</x:xmpmeta>
                                                                                                    
                                                                                                    
                                                                                                    
                                                                                                    
                                                                                                    
                                                                                                    
                                                                                                    
                                                                                                    
                                                                                                    
                                                                                                    
                                                                                                    
                                                                                                    
                                                                                                    
                                                                                                    
                                                                                                    
                                                                                                    
                                                                                                    
                                                                                                    
                                                                                                    
                                                                                                    
                           
<?xpacket end="w"?></metadata>
<defs>
    <style>
      .cls-1 {
        fill: #fff;
        stroke: #000;
        stroke-width: 1px;
        fill-rule: evenodd;
      }
    </style>
  </defs>
  <g id="Artboard_1" data-name="Artboard 1">
    <path class="cls-1" d="M892.634,472.538c-16.718,0-33.846,12.061-33.846,26.866,0,5.621,1.917,11.651,7.262,15.355,2.6,2.053,2.6,5.063-.415,8.357-3.561,3.838-8.765,6.849-13.976,6.849-6.3,0-14.66-5.889-14.66-17.266,0-6.3,4.111-19.875,20.555-32.212,17.261-13.154,32.062-17.54,49.056-18.634C942.507,433.2,971.551,428,992.655,428c23.025,0,43.565,7.4,53.985,11.511,9.32,3.562,45.49,18.642,71.12,29.877,26.85,11.1,50.01,17.824,65.9,17.824,12.75,0,31.11-4.529,31.11-20.151,0-5.756-2.33-9.734-5.49-12.061-1.77-1.509-3.15-3.7-3.15-5.622,0-5.755,5.21-14.522,14.25-14.522,10.14,0,15.62,10.142,15.62,17.816,0,20.828-22.74,34.95-38.09,41.254-28.23,30.011-56.73,42.08-84.4,42.08-20.28,0-39.74-5.487-65.49-14.805-19.47-7.13-80.572-32.07-105.105-39.886-22.605-6.989-35.488-8.774-50.013-8.774h-0.268Zm78.783-33.164c-18.77,0-36.581,9.459-45.354,23.439,10.69,0.134,26.859,2.468,53.575,12.193,26.722,9.051,76.052,30.153,93.312,36.049,19.18,6.307,37.55,11.512,55.77,11.512,20.41,0,38.64-6.715,48.23-23.981-19.05,2.461-36.99-.551-63.44-10.833-20.28-7.808-76.18-33.439-95.1-39.879-15.89-5.347-31.233-8.5-46.717-8.5h-0.276Z" transform="translate(-88 -321)"/>
    <path id="Shape_1_copy" data-name="Shape 1 copy" class="cls-1" d="M179.215,490.875c-16.592,0-33.591-11.95-33.591-26.618,0-5.569,1.9-11.543,7.208-15.213,2.582-2.033,2.582-5.016-.413-8.28-3.534-3.8-8.7-6.785-13.871-6.785-6.257,0-14.549,5.835-14.549,17.107,0,6.246,4.08,19.691,20.4,31.913,17.132,13.033,31.822,17.378,48.687,18.461C228.714,529.846,257.539,535,278.485,535c22.849,0,43.242-7.331,53.578-11.405,9.252-3.529,45.153-18.469,70.585-29.6,26.649-11,49.632-17.659,65.4-17.659,12.653,0,30.877,4.487,30.877,19.964,0,5.7-2.316,9.644-5.446,11.95-1.763,1.5-3.127,3.669-3.127,5.57,0,5.7,5.172,14.387,14.143,14.387,10.063,0,15.5-10.048,15.5-17.651,0-20.635-22.568-34.626-37.8-40.872C454.182,439.954,425.9,428,398.428,428c-20.127,0-39.436,5.436-65,14.668-19.316,7.064-79.962,31.773-104.31,39.516-22.435,6.925-35.221,8.694-49.638,8.694h-0.266Zm78.191,32.856c-18.629,0-36.306-9.371-45.012-23.221,10.609-.133,26.657-2.446,53.172-12.081,26.516-8.967,75.477-29.873,92.607-35.715,19.043-6.248,37.267-11.4,55.35-11.4,20.26,0,38.35,6.652,47.868,23.758-18.9-2.438-36.713.547-62.963,10.734-20.127,7.735-75.609,33.129-94.379,39.51-15.773,5.3-31,8.42-46.369,8.42h-0.274Z" transform="translate(-88 -321)"/>
    <path class="cls-1" d="M683.594,544.978H682.4c-11.28,40.4-50.481,53.462-71.868,53.462-22.578,0-57.03-8.32-70.1-13.066-11.877-4.765-22.578-7.132-28.515-7.132-16.623,0-30.882,11.878-30.882,34.459,0,21.374,15.447,33.265,32.073,33.265,10.686,0,15.447-7.129,17.814-13.067-11.877,1.176-14.244-7.132-14.244-13.069s3.558-13.07,13.068-13.07c10.686,0,17.814,7.132,17.814,20.2s-13.065,30.885-34.452,30.885-42.774-13.066-42.774-45.143c0-33.268,23.769-45.161,42.774-45.161,5.937,0,16.638,3.573,26.133,7.131l1.191-1.191c-57.03-59.4-77.226-80.793-108.108-80.793-19,0-34.455,11.894-34.455,33.268,0,23.769,16.641,24.96,22.578,24.96a8.956,8.956,0,0,0,8.319-5.937c-1.191-1.192-7.128-2.383-7.128-11.894,0-9.5,7.128-13.07,14.244-13.07s16.638,5.941,16.638,20.2c0,13.07-11.877,24.964-26.133,24.964-35.646,0-40.392-27.33-40.392-39.221,0-9.5,5.937-43.955,47.52-43.955,43.947,0,78.4,49.908,106.917,77.235l1.191-1.191c-4.749-9.511-5.94-19.007-5.94-29.71,0-10.687,7.131-45.143,41.583-45.143,28.5,0,39.2,22.581,39.2,34.456,0,15.437-10.7,33.268-28.515,33.268-15.447,0-21.387-10.7-21.387-17.831,0-8.3,3.573-16.625,11.877-16.625s11.892,5.938,11.892,14.258c1.176,1.191,0,4.749,0,7.129,4.746,0,15.432-3.571,15.432-20.2,0-14.257-13.065-24.96-27.324-24.96-15.432,0-32.073,8.32-32.073,36.839,0,27.327,11.877,57.036,64.161,57.036,16.623,0,62.955-11.891,62.955-64.165,0-26.136-13.068-32.077-22.563-32.077-8.319,0-15.45,4.75-15.45,13.07,0,5.937,3.558,10.687,8.322,11.878,0-4.749,3.555-9.5,7.128-9.5,4.746,0,8.3,5.938,8.3,10.687s-3.558,11.875-13.068,11.875c-7.128,0-20.2-5.937-20.2-21.386,0-19.01,13.068-24.948,24.96-24.948,14.256,0,27.324,8.32,31.476,27.327h1.191C687.746,490.32,700.814,482,716.261,482c10.686,0,23.769,5.938,23.769,24.948,0,15.449-13.083,22.578-20.211,22.578-9.5,0-13.068-8.321-13.068-13.067s3.573-10.687,8.319-10.687,7.131,4.747,7.131,9.5a11.424,11.424,0,0,0,8.319-10.687c0-9.511-5.94-14.261-14.259-14.261-10.686,0-23.751,5.941-23.751,32.077,0,52.274,46.329,64.165,64.143,64.165,51.078,0,62.97-29.709,62.97-55.845,0-29.71-16.641-38.03-32.088-38.03-14.244,0-27.324,10.7-27.324,24.96,0,16.628,11.892,20.2,16.638,20.2-1.191-2.38-1.191-4.762-1.191-7.129,0-8.32,3.573-14.258,11.877-14.258,9.51,0,11.892,8.32,11.892,16.625,0,7.128-5.94,17.831-21.387,17.831-17.829,0-28.515-17.831-28.515-33.268,0-10.7,10.686-34.456,39.2-34.456,34.452,0,41.583,34.456,41.583,45.143,0,10.7-1.191,20.2-4.749,29.71l1.191,1.191C855.251,531.908,888.53,482,933.668,482,975.251,482,980,516.459,980,525.955c0,11.891-4.749,39.221-39.2,39.221-15.45,0-27.327-11.894-27.327-24.964,0-14.257,9.5-20.2,16.626-20.2s14.256,4.765,14.256,13.07c0,9.511-4.746,10.7-7.128,11.894a8.956,8.956,0,0,0,8.319,5.937c5.937,0,22.578-1.191,22.578-24.96,0-21.374-15.45-33.268-34.455-33.268-30.9,0-51.093,21.39-106.917,80.793l1.176,1.191c8.319-3.558,19.02-7.131,26.148-7.131,19,0,41.568,11.893,41.568,45.161,0,32.077-21.372,45.143-41.568,45.143-22.575,0-35.643-17.816-35.643-30.885s7.128-20.2,17.814-20.2c9.51,0,13.068,7.132,13.068,13.07s-2.367,14.245-14.259,13.069c2.382,5.938,7.131,13.067,19.02,13.067,15.435,0,30.882-11.891,30.882-33.265,0-22.581-14.256-34.459-30.882-34.459-5.937,0-16.638,2.367-28.515,7.132-13.068,4.746-47.52,14.258-68.907,14.258-22.578,0-61.779-14.258-73.653-54.654h0.594Zm73.059,125.935c-24.942,0-49.9-49.907-49.9-67.723,0-2.383,0-4.75,1.191-7.132,4.764,8.323,14.259,20.2,28.515,27.33,15.45,7.129,36.834,11.878,36.834,29.71C773.291,662.593,766.163,670.913,756.653,670.913Zm-96.231,11.879c0-15.437,13.068-47.526,15.447-60.6,2.382-11.878,7.131-45.146,7.131-45.146s4.746,33.268,7.128,45.146c2.382,13.069,16.623,46.334,16.623,60.6S703.2,722.013,683,722.013,660.422,697.049,660.422,682.792Zm-28.5-60.6c14.241-5.941,23.751-17.816,28.5-26.139,1.191,2.382,1.191,4.749,1.191,7.132,0,17.816-24.945,67.723-49.9,67.723-9.5,0-16.626-8.32-16.626-17.815C595.085,635.266,616.472,630.517,631.922,622.2Z" transform="translate(-88 -321)"/>
  </g>
</svg>
