<svg xmlns="http://www.w3.org/2000/svg" width="1188" height="465" viewBox="0 0 1188 465">
  <metadata><?xpacket begin="﻿" id="W5M0MpCehiHzreSzNTczkc9d"?>
<x:xmpmeta xmlns:x="adobe:ns:meta/" x:xmptk="Adobe XMP Core 5.6-c138 79.159824, 2016/09/14-01:09:01        ">
   <rdf:RDF xmlns:rdf="http://www.w3.org/1999/02/22-rdf-syntax-ns#">
      <rdf:Description rdf:about=""/>
   </rdf:RDF>
</x:xmpmeta>
                                                                                                    
                                                                                                    
                                                                                                    
                                                                                                    
                                                                                                    
                                                                                                    
                                                                                                    
                                                                                                    
                                                                                                    
                                                                                                    
                                                                                                    
                                                                                                    
                                                                                                    
                                                                                                    
                                                                                                    
                                                                                                    
                                                                                                    
                                                                                                    
                                                                                                    
                                                                                                    
                           
<?xpacket end="w"?></metadata>
<defs>
    <style>
      .cls-1 {
        fill: #38332c;
        fill-rule: evenodd;
      }
    </style>
  </defs>
  <g id="Artboard_1" data-name="Artboard 1">
    <path class="cls-1" d="M405.668,538.816c-31.239,0-63.244,22.541-63.244,50.21,0,10.5,3.582,21.775,13.57,28.7,4.862,3.837,4.862,9.463-.776,15.619-6.655,7.172-16.378,12.8-26.116,12.8-11.781,0-27.394-11.006-27.394-32.269,0-11.782,7.682-37.143,38.409-60.2,32.255-24.583,59.913-32.78,91.667-34.823,67.08-53.545,121.351-63.273,160.787-63.273,43.02,0,81.414,13.829,100.876,21.513,17.419,6.657,85.013,34.838,132.895,55.836,50.175,20.747,93.445,33.31,123.143,33.31,23.823,0,58.135-8.464,58.135-37.659,0-10.758-4.36-18.191-10.253-22.54-3.32-2.821-5.889-6.922-5.889-10.508,0-10.755,9.742-27.139,26.632-27.139,18.94,0,29.18,18.954,29.18,33.3,0,38.925-42.49,65.316-71.174,77.1-52.747,56.086-106,78.641-157.72,78.641-37.893,0-74.248-10.254-122.377-27.669-36.369-13.325-150.551-59.934-196.393-74.54-42.241-13.063-66.314-16.4-93.457-16.4h-0.5Zm147.217-61.977c-35.075,0-68.357,17.676-84.749,43.8,19.974,0.25,50.189,4.613,100.111,22.788,49.925,16.914,142.107,56.351,174.359,67.371,35.854,11.785,70.166,21.513,104.211,21.513,38.146,0,72.205-12.548,90.125-44.817-35.589,4.6-69.122-1.03-118.546-20.246C780.5,552.659,676.042,504.758,640.7,492.722c-29.7-9.992-58.368-15.883-87.3-15.883h-0.515Z" transform="translate(-88 -321)"/>
  </g>
</svg>
